<svg xmlns="http://www.w3.org/2000/svg" viewBox="0 0 512 512"><g id="Layer_4_copy" data-name="Layer 4 copy"><path d="M389.17,211.69c-7.28-13.49-23.83-21-35.78-23.27A59.17,59.17,0,0,0,317.28,193a136,136,0,0,0-27.45,16.91c-17,13.9-28.41,31-37.29,46.54-3.57-2.34-9-5-16.24-3.69-9.27,1.71-17.55,8.88-21.6,18.7-3.95,9.59-3.17,19.82,2.07,27.37,4.65,6.7,6,12.46,4.39,18.67-2,7.81-3.3,15.57-4.53,23.08l-.57,3.46a14.55,14.55,0,0,1-3.84,8.33l-1.32,1.33c-3.54,3.54-8.91,8.88-10,17.21a24.28,24.28,0,0,0,5.93,19.42l-.79,10.1c-2.36,29.65-3.6,54.64-1.95,80.22.54,8.4,1,15.66,6.88,20.84,4.77,4.21,10.27,4.72,17.51,4.72l3.46,0h.5c11.79-.12,18.81-7.28,18.81-19.14,0-5.52-.05-11.05-.1-16.59-.27-29.11-.53-56.6,6.42-83.68l.12-.49a264.14,264.14,0,0,0,27.11-9.47c2-.79,4-1.59,6.07-2.37a184.94,184.94,0,0,0,42.37-23.42,214.21,214.21,0,0,0,25.91-21.8C389.34,299,410.35,250.94,389.17,211.69Zm-49.69,60.59c-6.39,15.94-17.15,29.47-32.9,41.36A128.84,128.84,0,0,1,282.42,328c-4.61,2.11-9.18,4.36-13.61,6.55,5.35-14.86,10.44-28.9,17.3-42.29a236.58,236.58,0,0,1,13.68-24,111.52,111.52,0,0,1,18.53-21.38l.73-.65c5.37-4.79,12.05-10.75,17.39-11h.87c1.59.05,5.34.49,6.06,3.64C345.69,249.26,344.46,259.86,339.48,272.28Z"/><path d="M264.23,30.09C253.45,14.4,231.32,7.31,215.65,6a76.75,76.75,0,0,0-46.08,11c-14,8.56-26.33,18.1-35.69,27.61-23.59,23.93-37.52,52.59-48,77.45a35.88,35.88,0,0,1-1.53,3.31,20.41,20.41,0,0,1-2.07-.54,28.1,28.1,0,0,1-4.81-2.36c-4.73-2.69-11.22-6.36-19.81-3.81-10,3-18.41,12.15-21.82,23.9C32.48,153.9,34.45,165.2,41,172.79c9.77,11.28,13.64,22.73,11.82,35-1.67,11.33-2.31,22.69-2.92,33.68l-.29,5.22c-.45,7.65-2.44,13.37-6.47,18.56-.6.77-1.23,1.54-1.86,2.33-4.23,5.22-9.48,11.74-9.74,20.67a25.34,25.34,0,0,0,11.62,22.1l.59,19.88c1.21,43.48,3.3,80,9.66,116.68,1.95,11.23,3.24,18.65,9.21,22.87,3.55,2.52,7.53,3.13,13,2.87,3.2-.15,6.9-.58,11.34-1.11l.74-.08c11.6-1.37,16.84-8,15.57-19.75-.87-8.1-1.83-16.3-2.76-24.25C95.72,386,90.7,343,96.82,300.83c.14-.92.23-1.88.33-2.85a20.08,20.08,0,0,1,.63-3.92h0c15.12-5.37,29.25-12.73,42.91-19.85,2.86-1.48,5.72-3,8.59-4.44a263.8,263.8,0,0,0,56.32-39.56,308.19,308.19,0,0,0,33.53-35c19.09-23.7,32.91-51.55,38.91-78.4C285.4,84,280.63,54,264.23,30.09Zm-45,93.84c-7.4,26.27-22,49.39-44.66,70.68a203.2,203.2,0,0,1-35,26.25c-6.85,4.07-13.64,8.38-20.2,12.56-2.9,1.83-5.79,3.67-8.7,5.49-1.76,1.11-6.33,4-9.31,3.88-.33-1.32-.24-4.34,1.43-11.14.76-3.09,1.51-6.17,2.26-9.26,5.43-22.36,11-45.48,19.38-67.17,4.76-12.43,10.1-25.7,16.8-38.5a175.78,175.78,0,0,1,25.33-36.47l1-1.07C176.2,69.61,186,58.76,197.43,57c.67-.1,1.35-.18,2-.23h0c7.6-.59,16.88,2.06,20,11.35C225.29,85.05,225.2,102.79,219.25,123.93Z"/><path d="M476.56,114.51c8.84,20.1,2.28,43.67-17,55.17a37.8,37.8,0,0,1-25.26,5c-6.48-1.13-12.08-4.74-18-7.38-6.43-2.86-13.41-4.41-20.16-6.35a166.69,166.69,0,0,0-28.47-5.93c-8.2-.87-16.5-.8-24.74-1.2a5.61,5.61,0,0,1-5.44-5.82c-1.13-.56,7.8-8,8.37-8.47,7.34-5.89,14.94-11.44,22.54-17q15.17-11,30.4-21.95c8.25-5.94,15.88-11.42,26.1-13.27a48.08,48.08,0,0,1,44.69,16A45.89,45.89,0,0,1,476.56,114.51Z"/><path d="M345.4,48.11c18.62,3,26.41,24.59,19.53,39.26-9.53,19.14-31.08,26.92-44.5,42.57-2.28,2.14-6.06,9-10,6.92-1,.19-1.79-1.43-2.31-4.2C306.68,103,304,59.68,337.84,48A24,24,0,0,1,345.4,48.11Z"/></g></svg>